<mxfile host="app.diagrams.net" modified="2024-03-04T19:29:47.742Z" agent="Mozilla/5.0 (Windows NT 10.0; Win64; x64) AppleWebKit/537.36 (KHTML, like Gecko) Chrome/122.0.0.0 Safari/537.36 Edg/122.0.0.0" etag="Mul8YwvASex0Zu_Zreg6" version="24.0.1" type="device">
  <diagram name="PÃ¡gina-1" id="G-oPqGpTYpaZDfN0V4Ph">
    <mxGraphModel dx="1042" dy="617" grid="1" gridSize="10" guides="1" tooltips="1" connect="1" arrows="1" fold="1" page="1" pageScale="1" pageWidth="827" pageHeight="1169" math="0" shadow="0">
      <root>
        <mxCell id="0" />
        <mxCell id="1" parent="0" />
        <mxCell id="k1VWtAspwY_5EXiQt24D-1" value="" style="rounded=0;whiteSpace=wrap;html=1;" vertex="1" parent="1">
          <mxGeometry x="280" y="40" width="340" height="410" as="geometry" />
        </mxCell>
        <mxCell id="k1VWtAspwY_5EXiQt24D-2" value="X" style="rounded=0;whiteSpace=wrap;html=1;" vertex="1" parent="1">
          <mxGeometry x="590" y="40" width="30" height="30" as="geometry" />
        </mxCell>
        <mxCell id="k1VWtAspwY_5EXiQt24D-3" style="edgeStyle=orthogonalEdgeStyle;rounded=0;orthogonalLoop=1;jettySize=auto;html=1;exitX=0.5;exitY=1;exitDx=0;exitDy=0;" edge="1" parent="1" source="k1VWtAspwY_5EXiQt24D-2" target="k1VWtAspwY_5EXiQt24D-2">
          <mxGeometry relative="1" as="geometry" />
        </mxCell>
        <mxCell id="k1VWtAspwY_5EXiQt24D-4" value="Privacy" style="rounded=0;whiteSpace=wrap;html=1;" vertex="1" parent="1">
          <mxGeometry x="520" y="420" width="100" height="30" as="geometry" />
        </mxCell>
        <mxCell id="k1VWtAspwY_5EXiQt24D-5" value="" style="rounded=0;whiteSpace=wrap;html=1;" vertex="1" parent="1">
          <mxGeometry x="330" y="140" width="240" height="200" as="geometry" />
        </mxCell>
        <mxCell id="k1VWtAspwY_5EXiQt24D-6" value="Selecciona los coches que te interesen" style="rounded=0;whiteSpace=wrap;html=1;" vertex="1" parent="1">
          <mxGeometry x="335" y="140" width="230" height="20" as="geometry" />
        </mxCell>
        <mxCell id="k1VWtAspwY_5EXiQt24D-7" value="COCHE&amp;nbsp; 1" style="rounded=0;whiteSpace=wrap;html=1;" vertex="1" parent="1">
          <mxGeometry x="360" y="170" width="180" height="20" as="geometry" />
        </mxCell>
        <mxCell id="k1VWtAspwY_5EXiQt24D-8" value="COCHE&amp;nbsp; 2" style="rounded=0;whiteSpace=wrap;html=1;" vertex="1" parent="1">
          <mxGeometry x="360" y="190" width="180" height="20" as="geometry" />
        </mxCell>
        <mxCell id="k1VWtAspwY_5EXiQt24D-9" value="" style="rounded=0;whiteSpace=wrap;html=1;" vertex="1" parent="1">
          <mxGeometry x="360" y="220" width="180" height="100" as="geometry" />
        </mxCell>
        <mxCell id="k1VWtAspwY_5EXiQt24D-10" value="EMAIL" style="rounded=1;whiteSpace=wrap;html=1;" vertex="1" parent="1">
          <mxGeometry x="380" y="235" width="140" height="20" as="geometry" />
        </mxCell>
        <mxCell id="k1VWtAspwY_5EXiQt24D-11" value="Nombre&amp;nbsp;" style="rounded=1;whiteSpace=wrap;html=1;" vertex="1" parent="1">
          <mxGeometry x="380" y="255" width="140" height="20" as="geometry" />
        </mxCell>
        <mxCell id="k1VWtAspwY_5EXiQt24D-12" value="telefono" style="rounded=1;whiteSpace=wrap;html=1;" vertex="1" parent="1">
          <mxGeometry x="380" y="275" width="70" height="20" as="geometry" />
        </mxCell>
        <mxCell id="k1VWtAspwY_5EXiQt24D-13" value="cod postal" style="rounded=1;whiteSpace=wrap;html=1;" vertex="1" parent="1">
          <mxGeometry x="450" y="275" width="70" height="20" as="geometry" />
        </mxCell>
        <mxCell id="k1VWtAspwY_5EXiQt24D-15" value="lo quiero!" style="rounded=1;whiteSpace=wrap;html=1;" vertex="1" parent="1">
          <mxGeometry x="380" y="295" width="140" height="20" as="geometry" />
        </mxCell>
      </root>
    </mxGraphModel>
  </diagram>
</mxfile>
